<?xml version="1.0" encoding="UTF-8" standalone="no"?>
<svg
   xmlns:dc="http://purl.org/dc/elements/1.1/"
   xmlns:cc="http://creativecommons.org/ns#"
   xmlns:rdf="http://www.w3.org/1999/02/22-rdf-syntax-ns#"
   xmlns:svg="http://www.w3.org/2000/svg"
   xmlns="http://www.w3.org/2000/svg"
   xmlns:sodipodi="http://sodipodi.sourceforge.net/DTD/sodipodi-0.dtd"
   xmlns:inkscape="http://www.inkscape.org/namespaces/inkscape"
   version="1.0"
   width="580.000000pt"
   height="580.000000pt"
   viewBox="0 0 580.000000 580.000000"
   preserveAspectRatio="xMidYMid meet"
   id="svg2"
   inkscape:version="0.48.2 r9819"
   sodipodi:docname="bar.svg">
  <defs
     id="defs12" />
  <sodipodi:namedview
     pagecolor="#ffffff"
     bordercolor="#666666"
     borderopacity="1"
     objecttolerance="10"
     gridtolerance="10"
     guidetolerance="10"
     inkscape:pageopacity="0"
     inkscape:pageshadow="2"
     inkscape:window-width="1920"
     inkscape:window-height="1000"
     id="namedview10"
     showgrid="false"
     inkscape:zoom="0.32551724"
     inkscape:cx="-224.25847"
     inkscape:cy="362.5"
     inkscape:window-x="0"
     inkscape:window-y="25"
     inkscape:window-maximized="1"
     inkscape:current-layer="svg2" />
  <metadata
     id="metadata4">
Created by potrace 1.11, written by Peter Selinger 2001-2013
<rdf:RDF>
  <cc:Work
     rdf:about="">
    <dc:format>image/svg+xml</dc:format>
    <dc:type
       rdf:resource="http://purl.org/dc/dcmitype/StillImage" />
  </cc:Work>
</rdf:RDF>
</metadata>
  <g
     transform="translate(0.000000,580.000000) scale(0.100000,-0.100000)"
     fill="#000000"
     stroke="none"
     id="g6"
     style="fill:#4c4c67;fill-opacity:1">
    <path
       d="M2325 4933 c-701 -13 -1265 -59 -1265 -103 0 -4 354 -336 788 -737 433 -401 795 -737 805 -747 16 -16 17 -68 15 -854 l-3 -836 -523 -374 c-339 -242 -520 -378 -514 -384 41 -41 529 -68 1242 -68 646 0 1143 24 1235 60 26 10 28 13 14 23 -9 7 -246 176 -528 377 l-511 365 0 840 0 841 804 744 c584 541 802 748 795 757 -57 68 -1253 117 -2354 96z m1380 -566 c0 -11 -157 -164 -400 -388 -357 -330 -403 -369 -432 -369 -36 0 8 -38 -576 500 -140 129 -258 241 -261 248 -3 8 -4 18 0 23 3 5 341 8 837 7 795 -3 832 -4 832 -21z"
       id="path8"
       style="fill:#4c4c67;fill-opacity:1" />
  </g>
</svg>
