<?xml version="1.0" encoding="UTF-8" standalone="no"?>
<svg
   xmlns:dc="http://purl.org/dc/elements/1.1/"
   xmlns:cc="http://creativecommons.org/ns#"
   xmlns:rdf="http://www.w3.org/1999/02/22-rdf-syntax-ns#"
   xmlns:svg="http://www.w3.org/2000/svg"
   xmlns="http://www.w3.org/2000/svg"
   xmlns:sodipodi="http://sodipodi.sourceforge.net/DTD/sodipodi-0.dtd"
   xmlns:inkscape="http://www.inkscape.org/namespaces/inkscape"
   version="1.0"
   width="580.000000pt"
   height="580.000000pt"
   viewBox="0 0 580.000000 580.000000"
   preserveAspectRatio="xMidYMid meet"
   id="svg2"
   inkscape:version="0.48.2 r9819"
   sodipodi:docname="hospital.svg">
  <defs
     id="defs14" />
  <sodipodi:namedview
     pagecolor="#ffffff"
     bordercolor="#666666"
     borderopacity="1"
     objecttolerance="10"
     gridtolerance="10"
     guidetolerance="10"
     inkscape:pageopacity="0"
     inkscape:pageshadow="2"
     inkscape:window-width="1920"
     inkscape:window-height="1000"
     id="namedview12"
     showgrid="false"
     inkscape:zoom="0.32551724"
     inkscape:cx="-224.25847"
     inkscape:cy="362.5"
     inkscape:window-x="0"
     inkscape:window-y="25"
     inkscape:window-maximized="1"
     inkscape:current-layer="g6" />
  <metadata
     id="metadata4">
Created by potrace 1.11, written by Peter Selinger 2001-2013
<rdf:RDF>
  <cc:Work
     rdf:about="">
    <dc:format>image/svg+xml</dc:format>
    <dc:type
       rdf:resource="http://purl.org/dc/dcmitype/StillImage" />
  </cc:Work>
</rdf:RDF>
</metadata>
  <g
     transform="translate(0.000000,580.000000) scale(0.100000,-0.100000)"
     fill="#000000"
     stroke="none"
     id="g6">
    <path
       d="M2681 5330 c-848 -71 -1606 -593 -1967 -1355 -148 -313 -219 -606 -231 -955 -19 -584 160 -1123 526 -1580 222 -278 478 -483 806 -645 352 -174 671 -248 1065 -248 399 1 737 83 1089 264 464 239 823 603 1051 1064 113 230 187 460 225 705 23 145 31 438 16 585 -106 1057 -873 1911 -1906 2123 -201 42 -474 59 -674 42z m484 -215 c385 -54 731 -198 1040 -429 97 -73 274 -243 361 -348 365 -436 549 -1034 493 -1604 -98 -1012 -865 -1816 -1874 -1965 -263 -38 -591 -21 -855 46 -230 58 -475 168 -675 303 -1049 707 -1289 2134 -529 3149 75 99 266 297 364 376 310 250 685 412 1090 472 120 18 462 18 585 0z"
       id="path8"
       style="fill:#973434;fill-opacity:1" />
    <path
       d="M2410 4100 l0 -700 -700 0 -700 0 0 -460 0 -460 700 0 700 0 0 -700 0 -700 465 0 465 0 0 700 0 700 700 0 700 0 0 460 0 460 -700 0 -700 0 0 700 0 700 -465 0 -465 0 0 -700z"
       id="path10"
       style="stroke:#973434;stroke-opacity:1;fill:#973434;fill-opacity:1" />
  </g>
</svg>
