<?xml version="1.0" encoding="UTF-8" standalone="no"?>
<svg
   xmlns:osb="http://www.openswatchbook.org/uri/2009/osb"
   xmlns:dc="http://purl.org/dc/elements/1.1/"
   xmlns:cc="http://creativecommons.org/ns#"
   xmlns:rdf="http://www.w3.org/1999/02/22-rdf-syntax-ns#"
   xmlns:svg="http://www.w3.org/2000/svg"
   xmlns="http://www.w3.org/2000/svg"
   xmlns:sodipodi="http://sodipodi.sourceforge.net/DTD/sodipodi-0.dtd"
   xmlns:inkscape="http://www.inkscape.org/namespaces/inkscape"
   viewBox="0 0 35.999999 35.999999"
   id="svg3907"
   version="1.1"
   inkscape:version="0.48.2 r9819"
   width="100%"
   height="100%"
   sodipodi:docname="mall.svg"
   inkscape:export-filename="./FDroid-Logo.png"
   inkscape:export-xdpi="90"
   inkscape:export-ydpi="90">
  <metadata
     id="metadata3939">
    <rdf:RDF>
      <cc:Work
         rdf:about="">
        <dc:format>image/svg+xml</dc:format>
        <dc:type
           rdf:resource="http://purl.org/dc/dcmitype/StillImage" />
        <dc:title />
      </cc:Work>
    </rdf:RDF>
  </metadata>
  <defs
     id="defs3937">
    <linearGradient
       id="linearGradient3754"
       osb:paint="solid">
      <stop
         style="stop-color:#f3cd7f;stop-opacity:1;"
         offset="0"
         id="stop3756" />
    </linearGradient>
  </defs>
  <sodipodi:namedview
     pagecolor="#ffffff"
     bordercolor="#666666"
     borderopacity="0.0627451"
     objecttolerance="10"
     gridtolerance="10"
     guidetolerance="10"
     inkscape:pageopacity="0"
     inkscape:pageshadow="2"
     inkscape:window-width="1280"
     inkscape:window-height="995"
     id="namedview3935"
     showgrid="false"
     inkscape:zoom="7.9999996"
     inkscape:cx="1.3189885"
     inkscape:cy="34.970318"
     inkscape:window-x="1920"
     inkscape:window-y="0"
     inkscape:window-maximized="1"
     inkscape:current-layer="svg3907"
     fit-margin-top="0"
     fit-margin-left="0"
     fit-margin-right="0"
     fit-margin-bottom="0"
     borderlayer="false"
     showborder="true"
     inkscape:showpageshadow="false">
    <inkscape:grid
       type="xygrid"
       id="grid4618"
       empspacing="4"
       visible="true"
       enabled="true"
       snapvisiblegridlinesonly="true"
       originx="-47.987233px"
       originy="-63.960253px" />
  </sodipodi:namedview>
  <rect
     style="fill:#ffffff;fill-opacity:1;stroke:#4c4c67;stroke-width:2.33899994;stroke-miterlimit:4;stroke-opacity:1;stroke-dasharray:none"
     rx="4.7556248"
     height="26.02965"
     width="34.861145"
     y="9.4017982"
     x="0.58345878"
     id="rect3915" />
  <path
     style="fill:#4c4c67;fill-opacity:1;stroke:none"
     d="m 1.0758648,11.994019 c -0.00472,0.0774 -0.00572,0.153494 -0.00572,0.232153 l 0,1.923561 c 2.3986496,2.459673 31.3513632,2.459673 33.9389282,0 l 0,-1.923561 c 0,-0.07869 -0.0011,-0.154687 -0.0057,-0.232153 -2.581849,2.315973 -31.5345626,2.315973 -33.9274876,0 z"
     id="rect4615"
     inkscape:connector-curvature="0"
     sodipodi:nodetypes="csccsccc" />
  <path
     sodipodi:nodetypes="ccscscssscscscc"
     style="font-size:medium;font-style:normal;font-variant:normal;font-weight:normal;font-stretch:normal;text-indent:0;text-align:start;text-decoration:none;line-height:normal;letter-spacing:normal;word-spacing:normal;text-transform:none;direction:ltr;block-progression:tb;writing-mode:lr-tb;text-anchor:start;baseline-shift:baseline;color:#000000;fill:#ffffff;fill-opacity:1;stroke:#4c4c67;stroke-width:1.19999997;stroke-miterlimit:4;stroke-opacity:1;stroke-dasharray:none;marker:none;visibility:visible;display:inline;overflow:visible;enable-background:accumulate;font-family:Sans;-inkscape-font-specification:Sans"
     d="m 18.260437,0.37217898 c -0.259188,-4.9e-4 -0.52052,0.0103 -0.779836,0.0354 -2.074525,0.20176 -3.935224,1.41468002 -5.135401,2.80738002 -1.200176,1.39271 -1.749988,3.51984 -1.121014,5.7696 0.06459,0.23543 0.524987,0.4182 0.966046,0.38351 0.441061,-0.0346 0.783095,-0.28057 0.717691,-0.51594 -0.586941,-2.09941 -0.05419,-3.81373 0.983657,-5.01805 1.037853,-1.20434 2.57236,-1.87436 3.894753,-2.00298 1.322392,-0.12862 2.592475,0.17504 3.611174,1.27934 1.0187,1.10432 1.597929,3.01397 1.023535,5.83392 -0.04823,0.23637 0.310523,0.47488 0.753352,0.50087 0.442829,0.026 0.890103,-0.16523 0.939248,-0.40156 0.596083,-2.92642 0.05457,-5.22717 -1.187477,-6.57362 -1.086796,-1.17813 -2.851411,-2.09461002 -4.665728,-2.09794002 z"
     id="path4342"
     inkscape:connector-curvature="0" />
  <path
     inkscape:connector-curvature="0"
     id="path4221"
     d="m 18.433161,2.512819 c -0.334871,-6.3e-4 -0.672512,0.0132 -1.007548,0.0458 -2.680283,0.26068 -5.084302,1.82777 -6.634929,3.62713 -1.5506273,1.79936 -2.2609821,4.54762 -1.4483496,7.45432 0.083453,0.30416 0.6782836,0.5403 1.2481316,0.49548 0.569849,-0.0448 1.011756,-0.36249 0.927256,-0.66658 -0.758326,-2.71245 -0.07001,-4.92733 1.270884,-6.48334 1.340903,-1.55599 3.323484,-2.42166 5.032012,-2.58783 1.70853,-0.16617 3.349475,0.22615 4.665633,1.65291 1.316158,1.42679 2.064522,3.89404 1.322405,7.53742 -0.06231,0.30538 0.401195,0.61354 0.97333,0.64712 0.572136,0.0335 1.150012,-0.21349 1.213507,-0.51881 0.77014,-3.78094 0.0705,-6.75351 -1.534219,-8.49311 -1.404138,-1.52214 -3.684018,-2.70623 -6.028113,-2.71054 z"
     style="font-size:medium;font-style:normal;font-variant:normal;font-weight:normal;font-stretch:normal;text-indent:0;text-align:start;text-decoration:none;line-height:normal;letter-spacing:normal;word-spacing:normal;text-transform:none;direction:ltr;block-progression:tb;writing-mode:lr-tb;text-anchor:start;baseline-shift:baseline;color:#000000;fill:#ffffff;fill-opacity:1;stroke:#4c4c67;stroke-width:1.43899996;stroke-miterlimit:4;stroke-opacity:1;stroke-dasharray:none;marker:none;visibility:visible;display:inline;overflow:visible;enable-background:accumulate;font-family:Sans;-inkscape-font-specification:Sans"
     sodipodi:nodetypes="ccscscssscscscc" />
</svg>
