<?xml version="1.0" encoding="UTF-8" standalone="no"?>
<svg
   xmlns:dc="http://purl.org/dc/elements/1.1/"
   xmlns:cc="http://creativecommons.org/ns#"
   xmlns:rdf="http://www.w3.org/1999/02/22-rdf-syntax-ns#"
   xmlns:svg="http://www.w3.org/2000/svg"
   xmlns="http://www.w3.org/2000/svg"
   xmlns:sodipodi="http://sodipodi.sourceforge.net/DTD/sodipodi-0.dtd"
   xmlns:inkscape="http://www.inkscape.org/namespaces/inkscape"
   version="1.0"
   width="580.000000pt"
   height="580.000000pt"
   viewBox="0 0 580.000000 580.000000"
   preserveAspectRatio="xMidYMid meet"
   id="svg2"
   inkscape:version="0.48.2 r9819"
   sodipodi:docname="school.svg">
  <defs
     id="defs16" />
  <sodipodi:namedview
     pagecolor="#ffffff"
     bordercolor="#666666"
     borderopacity="1"
     objecttolerance="10"
     gridtolerance="10"
     guidetolerance="10"
     inkscape:pageopacity="0"
     inkscape:pageshadow="2"
     inkscape:window-width="1280"
     inkscape:window-height="995"
     id="namedview14"
     showgrid="false"
     inkscape:zoom="0.92070182"
     inkscape:cx="141.48204"
     inkscape:cy="453.94956"
     inkscape:window-x="1920"
     inkscape:window-y="0"
     inkscape:window-maximized="1"
     inkscape:current-layer="g6" />
  <metadata
     id="metadata4">
Created by potrace 1.11, written by Peter Selinger 2001-2013
<rdf:RDF>
  <cc:Work
     rdf:about="">
    <dc:format>image/svg+xml</dc:format>
    <dc:type
       rdf:resource="http://purl.org/dc/dcmitype/StillImage" />
  </cc:Work>
</rdf:RDF>
</metadata>
  <rect
     style="fill:#ffffff;fill-opacity:1;fill-rule:nonzero;stroke:#647000;stroke-width:0.80000000999999998;stroke-miterlimit:4;stroke-opacity:1;stroke-dasharray:none"
     id="rect3807"
     width="444.21613"
     height="283.24152"
     x="68.813553"
     y="137.01271" />
  <g
     transform="matrix(0.1,0,0,-0.1,-4.3008475,574.47034)"
     id="g6"
     style="fill:#000000;fill-opacity:1;stroke:none">
    <path
       d="m 2812,5311 c -18,-12 -40,-34 -51,-51 -10,-17 -96,-215 -191,-440 l -173,-410 -834,0 c -897,0 -880,1 -917,-51 -15,-21 -16,-145 -16,-1421 0,-1062 3,-1403 12,-1423 23,-51 45,-55 328,-55 143,0 260,-3 260,-7 0,-3 -66,-166 -146,-361 C 956,781 938,732 943,697 c 6,-47 31,-83 78,-115 45,-31 122,-27 167,9 36,28 44,45 202,429 67,162 135,328 152,368 l 30,72 1335,-2 1336,-3 169,-410 c 93,-225 179,-421 191,-433 37,-40 76,-55 127,-50 83,8 140,71 140,152 0,23 -51,158 -145,387 -80,193 -145,353 -145,355 0,2 128,4 284,4 270,0 284,1 309,20 15,12 31,38 37,58 14,50 14,2733 0,2783 -6,19 -22,46 -36,60 l -26,24 -866,3 -867,3 -179,424 c -209,496 -204,488 -319,493 -59,2 -78,-1 -105,-17 z m 184,-704 81,-192 -165,-3 c -91,-1 -167,0 -170,2 -2,3 33,93 78,201 46,107 86,193 89,189 3,-3 42,-92 87,-197 z M 1725,4020 c 133,-26 222,-96 266,-206 22,-56 23,-74 29,-404 6,-322 8,-349 28,-398 12,-29 22,-55 22,-57 0,-3 -83,-5 -185,-5 -209,0 -201,-3 -225,88 l -11,42 -52,-39 c -74,-55 -122,-77 -210,-95 -152,-32 -315,-12 -405,47 -54,36 -106,109 -123,170 -27,101 17,240 94,297 59,43 120,63 318,105 96,21 216,51 268,67 l 93,30 -5,35 c -13,78 -50,103 -149,103 -105,0 -159,-28 -203,-105 -10,-17 -18,-17 -194,0 -125,13 -185,23 -188,32 -3,7 3,35 12,62 44,134 154,210 350,241 78,12 393,5 470,-10 z m 2699,5 c 192,-34 324,-136 389,-302 17,-42 16,-43 -6,-47 -27,-6 -328,-46 -344,-46 -7,0 -20,16 -29,36 -9,19 -33,47 -52,62 -30,23 -47,28 -112,30 -63,3 -84,0 -118,-17 -84,-43 -124,-128 -124,-266 -1,-135 39,-216 127,-256 109,-50 243,-3 290,102 16,35 22,39 54,38 54,0 340,-34 346,-41 9,-9 -33,-107 -71,-164 -74,-111 -188,-183 -337,-211 -102,-19 -329,-13 -427,13 -178,46 -309,165 -363,328 -29,88 -29,304 0,393 58,176 213,309 403,346 100,20 267,21 374,2 z M 2810,3002 c 0,-137 3,-252 6,-255 4,-4 23,8 42,25 65,57 136,82 243,86 154,7 261,-35 349,-135 87,-99 123,-219 123,-403 -2,-317 -137,-519 -376,-560 -132,-23 -253,16 -350,112 -32,32 -60,58 -63,58 -2,0 -4,-34 -4,-75 l 0,-75 -185,0 -185,0 0,735 0,735 200,0 200,0 0,-248 z"
       id="path8"
       style="fill:#4c4c67;fill-opacity:1;stroke:#4c4c67;stroke-opacity:1"
       inkscape:connector-curvature="0" />
    <path
       d="m 1575,3445 c -22,-7 -87,-28 -144,-45 -129,-39 -171,-73 -171,-140 0,-165 304,-129 355,42 16,53 21,159 8,157 -5,0 -26,-7 -48,-14 z"
       id="path10"
       style="fill:#4c4c67;fill-opacity:1;stroke:#4c4c67;stroke-opacity:1"
       inkscape:connector-curvature="0" />
    <path
       d="m 2925,2546 c -39,-17 -79,-64 -97,-113 -7,-22 -13,-78 -12,-133 0,-114 22,-172 80,-216 32,-25 47,-29 98,-29 112,0 166,70 174,223 8,143 -24,229 -99,267 -35,18 -104,19 -144,1 z"
       id="path12"
       style="fill:#4c4c67;fill-opacity:1"
       inkscape:connector-curvature="0" />
  </g>
  <rect
     style="opacity:0;fill:#0000cf;fill-opacity:1;fill-rule:nonzero;stroke:#000000;stroke-width:1;stroke-miterlimit:4;stroke-opacity:1;stroke-dasharray:none"
     id="rect3761"
     width="652.03918"
     height="439.30084"
     x="46.848518"
     y="99.07309"
     transform="scale(0.8,0.8)" />
  <rect
     style="opacity:0;fill:#00007c;fill-opacity:1;fill-rule:nonzero;stroke:#000000;stroke-width:1;stroke-miterlimit:4;stroke-opacity:1;stroke-dasharray:none"
     id="rect3763"
     width="362.5"
     height="276.48306"
     x="40.704449"
     y="33.024364"
     transform="scale(0.8,0.8)" />
  <rect
     style="opacity:0;fill:#00007c;fill-opacity:1;fill-rule:nonzero;stroke:#000000;stroke-width:1;stroke-miterlimit:4;stroke-opacity:1;stroke-dasharray:none"
     id="rect3765"
     width="115.96928"
     height="60.672668"
     x="41.472458"
     y="43.776482"
     transform="scale(0.8,0.8)" />
  <rect
     style="opacity:0;fill:#00007c;fill-opacity:1;fill-rule:nonzero;stroke:#000000;stroke-width:1;stroke-miterlimit:4;stroke-opacity:1;stroke-dasharray:none"
     id="rect3767"
     width="157.44174"
     height="89.856995"
     x="57.600636"
     y="66.816734"
     transform="scale(0.8,0.8)" />
  <rect
     style="opacity:0;fill:#00007c;fill-opacity:1;fill-rule:nonzero;stroke:#000000;stroke-width:1;stroke-miterlimit:4;stroke-opacity:1;stroke-dasharray:none"
     id="rect3769"
     width="37.632416"
     height="75.264832"
     x="134.40149"
     y="69.888771"
     transform="scale(0.8,0.8)" />
  <rect
     style="opacity:0;fill:#00007c;fill-opacity:1;fill-rule:nonzero;stroke:#000000;stroke-width:1;stroke-miterlimit:4;stroke-opacity:1;stroke-dasharray:none"
     id="rect3771"
     width="116.8104"
     height="72.192795"
     x="42.167355"
     y="92.929024"
     transform="scale(0.8,0.8)" />
  <rect
     style="opacity:0;fill:#00007c;fill-opacity:1;fill-rule:nonzero;stroke:#000000;stroke-width:1;stroke-miterlimit:4;stroke-opacity:1;stroke-dasharray:none"
     id="rect3773"
     width="30.720339"
     height="52.992584"
     x="145.92162"
     y="42.240467"
     transform="scale(0.8,0.8)" />
  <path
     style="opacity:0;fill:#000000;fill-opacity:1;fill-rule:nonzero;stroke:#000000;stroke-width:0.76800847;stroke-miterlimit:4;stroke-opacity:1;stroke-dasharray:none"
     d="m 142.85433,357.33971 c -5.28076,-1.00439 -13.53901,-3.57019 -16.74974,-5.20406 -6.591,-3.35403 -14.13693,-12.18238 -17.28705,-20.22498 -3.08573,-7.87821 -2.30452,-17.94406 2.13905,-27.56159 5.1374,-11.11922 12.88141,-16.01131 33.19202,-20.96827 6.68023,-1.63036 19.42781,-4.71401 28.32795,-6.85255 8.90014,-2.13854 19.70026,-4.99968 24.00026,-6.3581 8.66111,-2.73615 8.41503,-2.40795 6.94646,-9.26421 -1.19356,-5.5723 -4.92189,-9.30064 -10.4942,-10.49419 -7.8992,-1.69196 -18.11862,-0.74221 -23.99698,2.23019 -2.84004,1.43606 -8.32975,6.92752 -9.94789,9.95104 -0.91606,1.71168 -1.1383,1.74198 -9.11043,1.24226 -10.19245,-0.63889 -27.57885,-2.55096 -32.98863,-3.62791 -2.26028,-0.44996 -4.27332,-1.31376 -4.51216,-1.93618 -0.56714,-1.47793 2.37998,-10.37257 4.81162,-14.52185 5.73605,-9.78782 17.47252,-17.12735 33.26819,-20.80463 11.54149,-2.6869 56.98439,-2.05014 68.81838,0.9643 9.91753,2.52626 19.68175,9.08707 24.88932,16.72371 1.18039,1.731 3.09848,5.54468 4.26242,8.47484 1.97088,4.96161 2.16282,6.46514 2.79418,21.88824 0.37287,9.10837 0.99481,28.6568 1.3821,43.44097 0.66789,25.49598 0.80174,27.17693 2.59925,32.64036 1.04231,3.16803 2.15612,6.38461 2.47513,7.14794 0.55294,1.32306 -0.46371,1.37685 -21.7711,1.15201 -26.20462,-0.27653 -24.59524,0.29364 -27.76743,-9.83733 l -1.92002,-6.13193 -6.52807,4.70731 c -13.89554,10.01993 -23.43581,13.0392 -42.24047,13.36814 -6.96967,0.12191 -13.53615,0.0573 -14.59216,-0.14353 l 0,0 z m 41.60742,-27.87033 c 4.39468,-1.34687 11.57592,-6.52731 14.29297,-10.31074 3.1262,-4.35316 4.79111,-10.83699 4.99561,-19.455 l 0.16068,-6.77114 -2.51472,0.11527 c -4.02808,0.18465 -33.35635,10.05713 -37.29263,12.55344 -4.79401,3.04027 -6.65067,6.22315 -6.6543,11.40749 -0.005,6.7325 2.72355,10.76392 8.82923,13.04656 2.73534,1.02262 14.1331,0.65538 18.18316,-0.58588 l 0,0 z"
     id="path3793"
     inkscape:connector-curvature="0"
     transform="scale(0.8,0.8)" />
  <path
     style="opacity:0;fill:#000000;fill-opacity:1;fill-rule:nonzero;stroke:#007000;stroke-width:0.76800847000000005;stroke-miterlimit:4;stroke-opacity:1;stroke-dasharray:none"
     d="m 142.85433,357.33971 c -5.28076,-1.00439 -13.53901,-3.57019 -16.74974,-5.20406 -6.591,-3.35403 -14.13693,-12.18238 -17.28705,-20.22498 -3.08573,-7.87821 -2.30452,-17.94406 2.13905,-27.56159 5.1374,-11.11922 12.88141,-16.01131 33.19202,-20.96827 6.68023,-1.63036 19.42781,-4.71401 28.32795,-6.85255 8.90014,-2.13854 19.70026,-4.99968 24.00026,-6.3581 8.66111,-2.73615 8.41503,-2.40795 6.94646,-9.26421 -1.19356,-5.5723 -4.92189,-9.30064 -10.4942,-10.49419 -7.8992,-1.69196 -18.11862,-0.74221 -23.99698,2.23019 -2.84004,1.43606 -8.32975,6.92752 -9.94789,9.95104 -0.91606,1.71168 -1.1383,1.74198 -9.11043,1.24226 -10.19245,-0.63889 -27.57885,-2.55096 -32.98863,-3.62791 -2.26028,-0.44996 -4.27332,-1.31376 -4.51216,-1.93618 -0.56714,-1.47793 2.37998,-10.37257 4.81162,-14.52185 5.73605,-9.78782 17.47252,-17.12735 33.26819,-20.80463 11.54149,-2.6869 56.98439,-2.05014 68.81838,0.9643 9.91753,2.52626 19.68175,9.08707 24.88932,16.72371 1.18039,1.731 3.09848,5.54468 4.26242,8.47484 1.97088,4.96161 2.16282,6.46514 2.79418,21.88824 0.37287,9.10837 0.99481,28.6568 1.3821,43.44097 0.66789,25.49598 0.80174,27.17693 2.59925,32.64036 1.04231,3.16803 2.15612,6.38461 2.47513,7.14794 0.55294,1.32306 -0.46371,1.37685 -21.7711,1.15201 -26.20462,-0.27653 -24.59524,0.29364 -27.76743,-9.83733 l -1.92002,-6.13193 -6.52807,4.70731 c -13.89554,10.01993 -23.43581,13.0392 -42.24047,13.36814 -6.96967,0.12191 -13.53615,0.0573 -14.59216,-0.14353 l 0,0 z m 41.60742,-27.87033 c 4.39468,-1.34687 11.57592,-6.52731 14.29297,-10.31074 3.1262,-4.35316 4.79111,-10.83699 4.99561,-19.455 l 0.16068,-6.77114 -2.51472,0.11527 c -4.02808,0.18465 -33.35635,10.05713 -37.29263,12.55344 -4.79401,3.04027 -6.65067,6.22315 -6.6543,11.40749 -0.005,6.7325 2.72355,10.76392 8.82923,13.04656 2.73534,1.02262 14.1331,0.65538 18.18316,-0.58588 l 0,0 z"
     id="path3795"
     inkscape:connector-curvature="0"
     transform="scale(0.8,0.8)" />
  <path
     style="opacity:0;fill:#000000;fill-opacity:1;fill-rule:nonzero;stroke:#007000;stroke-width:0.76800847;stroke-miterlimit:4;stroke-opacity:1;stroke-dasharray:none"
     d="m 142.85433,357.33971 c -5.28076,-1.00439 -13.53901,-3.57019 -16.74974,-5.20406 -6.591,-3.35403 -14.13693,-12.18238 -17.28705,-20.22498 -3.08573,-7.87821 -2.30452,-17.94406 2.13905,-27.56159 5.1374,-11.11922 12.88141,-16.01131 33.19202,-20.96827 6.68023,-1.63036 19.42781,-4.71401 28.32795,-6.85255 8.90014,-2.13854 19.70026,-4.99968 24.00026,-6.3581 8.66111,-2.73615 8.41503,-2.40795 6.94646,-9.26421 -1.19356,-5.5723 -4.92189,-9.30064 -10.4942,-10.49419 -7.8992,-1.69196 -18.11862,-0.74221 -23.99698,2.23019 -2.84004,1.43606 -8.32975,6.92752 -9.94789,9.95104 -0.91606,1.71168 -1.1383,1.74198 -9.11043,1.24226 -10.19245,-0.63889 -27.57885,-2.55096 -32.98863,-3.62791 -2.26028,-0.44996 -4.27332,-1.31376 -4.51216,-1.93618 -0.56714,-1.47793 2.37998,-10.37257 4.81162,-14.52185 5.73605,-9.78782 17.47252,-17.12735 33.26819,-20.80463 11.54149,-2.6869 56.98439,-2.05014 68.81838,0.9643 9.91753,2.52626 19.68175,9.08707 24.88932,16.72371 1.18039,1.731 3.09848,5.54468 4.26242,8.47484 1.97088,4.96161 2.16282,6.46514 2.79418,21.88824 0.37287,9.10837 0.99481,28.6568 1.3821,43.44097 0.66789,25.49598 0.80174,27.17693 2.59925,32.64036 1.04231,3.16803 2.15612,6.38461 2.47513,7.14794 0.55294,1.32306 -0.46371,1.37685 -21.7711,1.15201 -26.20462,-0.27653 -24.59524,0.29364 -27.76743,-9.83733 l -1.92002,-6.13193 -6.52807,4.70731 c -13.89554,10.01993 -23.43581,13.0392 -42.24047,13.36814 -6.96967,0.12191 -13.53615,0.0573 -14.59216,-0.14353 l 0,0 z m 41.60742,-27.87033 c 4.39468,-1.34687 11.57592,-6.52731 14.29297,-10.31074 3.1262,-4.35316 4.79111,-10.83699 4.99561,-19.455 l 0.16068,-6.77114 -2.51472,0.11527 c -4.02808,0.18465 -33.35635,10.05713 -37.29263,12.55344 -4.79401,3.04027 -6.65067,6.22315 -6.6543,11.40749 -0.005,6.7325 2.72355,10.76392 8.82923,13.04656 2.73534,1.02262 14.1331,0.65538 18.18316,-0.58588 l 0,0 z"
     id="path3797"
     inkscape:connector-curvature="0"
     transform="scale(0.8,0.8)" />
  <path
     sodipodi:type="star"
     style="opacity:0;fill:#000000;fill-opacity:1;fill-rule:nonzero;stroke:#007000;stroke-width:1;stroke-miterlimit:4;stroke-opacity:1;stroke-dasharray:none"
     id="path3799"
     sodipodi:sides="5"
     sodipodi:cx="-120.57733"
     sodipodi:cy="54.528601"
     sodipodi:r1="79.164502"
     sodipodi:r2="39.582251"
     sodipodi:arg1="1.1722739"
     sodipodi:arg2="1.8005924"
     inkscape:flatsided="false"
     inkscape:rounded="0"
     inkscape:randomized="0"
     d="m -89.856993,127.48941 -39.736347,-34.419059 -50.88074,13.221159 20.45527,-48.427582 -28.29709,-44.304898 52.3784,4.489169 33.39218,-40.603093 11.916361,51.202041 48.934587,19.210807 -45.013677,27.155434 z"
     transform="scale(0.8,0.8)"
     inkscape:transform-center-x="-5.5721972"
     inkscape:transform-center-y="-2.0613442" />
</svg>
