<?xml version="1.0" encoding="UTF-8" standalone="no"?>
<svg
   xmlns:dc="http://purl.org/dc/elements/1.1/"
   xmlns:cc="http://creativecommons.org/ns#"
   xmlns:rdf="http://www.w3.org/1999/02/22-rdf-syntax-ns#"
   xmlns:svg="http://www.w3.org/2000/svg"
   xmlns="http://www.w3.org/2000/svg"
   xmlns:sodipodi="http://sodipodi.sourceforge.net/DTD/sodipodi-0.dtd"
   xmlns:inkscape="http://www.inkscape.org/namespaces/inkscape"
   version="1.0"
   width="580.000000pt"
   height="580.000000pt"
   viewBox="0 0 580.000000 580.000000"
   preserveAspectRatio="xMidYMid meet"
   id="svg2"
   inkscape:version="0.48.2 r9819"
   sodipodi:docname="university.svg">
  <defs
     id="defs16" />
  <sodipodi:namedview
     pagecolor="#ffffff"
     bordercolor="#666666"
     borderopacity="1"
     objecttolerance="10"
     gridtolerance="10"
     guidetolerance="10"
     inkscape:pageopacity="0"
     inkscape:pageshadow="2"
     inkscape:window-width="1920"
     inkscape:window-height="1000"
     id="namedview14"
     showgrid="false"
     inkscape:zoom="0.4603509"
     inkscape:cx="116.75735"
     inkscape:cy="351.70267"
     inkscape:window-x="0"
     inkscape:window-y="25"
     inkscape:window-maximized="1"
     inkscape:current-layer="svg2" />
  <metadata
     id="metadata4">
Created by potrace 1.11, written by Peter Selinger 2001-2013
<rdf:RDF>
  <cc:Work
     rdf:about="">
    <dc:format>image/svg+xml</dc:format>
    <dc:type
       rdf:resource="http://purl.org/dc/dcmitype/StillImage" />
  </cc:Work>
</rdf:RDF>
</metadata>
  <g
     transform="translate(0.000000,580.000000) scale(0.100000,-0.100000)"
     fill="#000000"
     stroke="none"
     id="g6"
     style="fill:#4c4c67;fill-opacity:1">
    <path
       d="M1469 3871 c-730 -367 -1260 -639 -1268 -650 -19 -30 7 -68 51 -75 18 -3 319 -8 668 -11 349 -3 907 -10 1240 -15 333 -5 738 -10 900 -12 l295 -3 1138 594 c684 357 1142 601 1148 613 17 32 -12 66 -63 72 -24 3 -351 17 -728 31 -377 14 -901 35 -1165 45 -264 11 -556 22 -650 25 -93 3 -202 8 -241 11 l-71 5 -1254 -630z"
       id="path8"
       style="fill:#4c4c67;fill-opacity:1" />
    <path
       d="M4592 3588 c-31 -17 -313 -170 -625 -340 l-569 -310 -901 26 c-1056 31 -972 30 -990 12 -7 -8 -76 -197 -151 -421 -146 -430 -149 -444 -98 -457 12 -4 73 18 154 54 343 155 680 231 1023 232 183 0 287 -16 569 -89 142 -36 546 -156 608 -180 13 -5 67 44 225 202 287 288 414 387 588 454 149 57 424 121 648 150 187 24 189 19 -128 388 -142 165 -267 302 -277 304 -10 3 -44 -8 -76 -25z"
       id="path10"
       style="fill:#4c4c67;fill-opacity:1" />
    <path
       d="M1010 2938 c-44 -99 -105 -300 -138 -458 -28 -134 -72 -442 -88 -621 l-6 -76 -53 -17 c-68 -21 -146 -90 -179 -159 -15 -30 -30 -84 -35 -127 -19 -150 -44 -527 -37 -553 7 -30 50 -47 68 -29 9 9 16 3 30 -18 13 -22 25 -30 47 -30 16 0 34 -7 41 -15 15 -19 45 -19 62 -2 10 11 16 9 34 -12 20 -24 25 -25 53 -14 24 9 33 9 38 -2 12 -20 47 -26 66 -12 10 7 36 72 61 152 24 77 62 180 85 228 123 262 104 449 -58 559 l-23 16 16 154 c62 582 166 969 283 1054 21 15 42 32 48 36 5 4 -57 8 -139 8 l-147 0 -29 -62z"
       id="path12"
       style="fill:#4c4c67;fill-opacity:1" />
  </g>
</svg>
