<?xml version="1.0" encoding="UTF-8" standalone="no"?>
<!-- Generator: Adobe Illustrator 12.0.0, SVG Export Plug-In . SVG Version: 6.00 Build 51448)  -->

<svg
   xmlns:dc="http://purl.org/dc/elements/1.1/"
   xmlns:cc="http://creativecommons.org/ns#"
   xmlns:rdf="http://www.w3.org/1999/02/22-rdf-syntax-ns#"
   xmlns:svg="http://www.w3.org/2000/svg"
   xmlns="http://www.w3.org/2000/svg"
   xmlns:sodipodi="http://sodipodi.sourceforge.net/DTD/sodipodi-0.dtd"
   xmlns:inkscape="http://www.inkscape.org/namespaces/inkscape"
   version="1.1"
   id="Layer_1"
   width="448"
   height="384"
   viewBox="0 0 448 384"
   overflow="visible"
   enable-background="new 0 0 448 384"
   xml:space="preserve"
   inkscape:version="0.48.2 r9819"
   sodipodi:docname="US_blank_wide_(CA).svg"><metadata
   id="metadata29"><rdf:RDF><cc:Work
       rdf:about=""><dc:format>image/svg+xml</dc:format><dc:type
         rdf:resource="http://purl.org/dc/dcmitype/StillImage" /><dc:title></dc:title></cc:Work></rdf:RDF></metadata><defs
   id="defs27" /><sodipodi:namedview
   pagecolor="#ffffff"
   bordercolor="#666666"
   borderopacity="1"
   objecttolerance="10"
   gridtolerance="10"
   guidetolerance="10"
   inkscape:pageopacity="0"
   inkscape:pageshadow="2"
   inkscape:window-width="1920"
   inkscape:window-height="1000"
   id="namedview25"
   showgrid="false"
   inkscape:zoom="1.2291667"
   inkscape:cx="84.53066"
   inkscape:cy="210.35363"
   inkscape:window-x="0"
   inkscape:window-y="25"
   inkscape:window-maximized="1"
   inkscape:current-layer="Layer_1" />
<g
   id="g3">
	<g
   id="g5">
		<path
   fill-rule="evenodd"
   clip-rule="evenodd"
   fill="#FFFFFF"
   d="M224,384    c-24.0244141-19.390625-54.5898438-31.0019531-87.8681641-31.0019531L105,353C47.0092773,353,0,305.9902344,0,248    c0-21.9492188,6.793457-42.4121094,18.3095703-59.2612305C26.9482422,176.0732422,32,160.7636719,32,144.2758789    C32,118.25,19.4160156,95.1645508,0,80.7714844L79.9990234,0C100.5126953,13.9814453,125.3017578,22.1547852,152,22.1547852    c26.6977539,0,51.4863281-8.1728516,72-22.1542969c20.5136719,13.9814453,45.3027344,22.1542969,72,22.1542969    c26.6982422,0,51.4873047-8.1733398,72.0009766-22.1547852L448,80.7714844C428.5839844,95.1645508,416,118.25,416,144.2758789    c0,16.487793,5.0517578,31.7973633,13.6904297,44.4628906C441.2070313,205.5878906,448,226.0507813,448,248    c0,57.9902344-47.0097656,105-105,105l-31.1318359-0.0019531C278.5898438,352.9980469,248.0244141,364.609375,224,384z"
   id="path7" />
		
			<path
   fill-rule="evenodd"
   clip-rule="evenodd"
   fill="none"
   stroke="#000000"
   stroke-width="0"
   stroke-linecap="round"
   stroke-linejoin="round"
   stroke-miterlimit="3.863693"
   d="    M224,384c-24.0244141-19.390625-54.5898438-31.0019531-87.8681641-31.0019531L105,353C47.0092773,353,0,305.9902344,0,248    c0-21.9492188,6.793457-42.4121094,18.3095703-59.2612305C26.9482422,176.0732422,32,160.7636719,32,144.2758789    C32,118.25,19.4160156,95.1645508,0,80.7714844L79.9990234,0C100.5126953,13.9814453,125.3017578,22.1547852,152,22.1547852    c26.6977539,0,51.4863281-8.1728516,72-22.1542969c20.5136719,13.9814453,45.3027344,22.1542969,72,22.1542969    c26.6982422,0,51.4873047-8.1733398,72.0009766-22.1547852L448,80.7714844C428.5839844,95.1645508,416,118.25,416,144.2758789    c0,16.487793,5.0517578,31.7973633,13.6904297,44.4628906C441.2070313,205.5878906,448,226.0507813,448,248    c0,57.9902344-47.0097656,105-105,105l-31.1318359-0.0019531C278.5898438,352.9980469,248.0244141,364.609375,224,384z"
   id="path9" />
	</g>
	<g
   id="g11">
		<path
   fill-rule="evenodd"
   clip-rule="evenodd"
   d="M104.9995117,332C58.6069336,332,21,294.3925781,21,248    c0-17.5673828,5.4345703-33.9316406,14.6523438-47.4199219C46.5942383,184.5385742,53,165.1191406,53,144.2758789    c0-24.293457-8.6782227-46.5727539-23.065918-63.8852539l53.4360352-53.9521484    C103.9238281,37.1201172,127.2792969,43.1547852,152,43.1547852c26.0830078,0,50.6455078-6.7182617,72-18.5229492    c21.3544922,11.8046875,45.9169922,18.5229492,72,18.5229492c24.7207031,0,48.0761719-6.034668,68.6298828-16.7163086    l53.4355469,53.9521484C403.6777344,97.7036133,395,119.9829102,395,144.2758789    c0,20.8432617,6.4052734,40.2626953,17.3476563,56.3041992C421.5654297,214.0683594,427,230.4316406,427,248    c0,46.3925781-37.6074219,84-84,84l-31.1308594-0.0019531c-32.3964844,0-62.5986328,9.5878906-87.8691406,26.0722656    c-25.2700195-16.484375-55.4731445-26.0722656-87.8686523-26.0722656L104.9995117,332z M136.1313477,343.9980469L105,344    c-53.0205078,0-96-42.9804688-96-96c0-20.0722656,6.2109375-38.7773438,16.7421875-54.1865234    C35.3681641,179.7006836,41,162.6298828,41,144.2758789c0-25.2836914-10.6689453-48.0761719-27.7255859-64.1176758    l67.9951172-68.6513672C101.9204102,23.9785156,126.1328125,31.1547852,152,31.1547852    c26.3984375,0,51.074707-7.4746094,72-20.4238281c20.9248047,12.9492188,45.6015625,20.4238281,72,20.4238281    c25.8671875,0,50.0800781-7.1762695,70.7304688-19.6479492l67.9951172,68.6513672    C417.6689453,96.199707,407,118.9921875,407,144.2758789c0,18.3540039,5.6318359,35.4248047,15.2578125,49.5375977    C432.7890625,209.2226563,439,227.9277344,439,248c0,53.0195313-42.9794922,96-96,96l-31.1318359-0.0019531    c-32.8486328,0-63.2333984,10.640625-87.8681641,28.6542969    C199.3652344,354.6386719,168.9804688,343.9980469,136.1313477,343.9980469z"
   id="path13"
   style="stroke-width:10;stroke-miterlimit:4;stroke-dasharray:none" />
	</g>
	<g
   id="g15">
		<g
   id="g17">
			<path
   fill-rule="evenodd"
   clip-rule="evenodd"
   d="M219.340332,94.3256836c0,5.7207031-1.7675781,10.4301758-5.3022461,14.1279297     C210.5029297,112.1513672,205.9912109,114,200.5029297,114s-10-1.8486328-13.534668-5.5463867     s-5.3022461-8.4072266-5.3022461-14.1279297V66.4189453h8.3720703v27.9067383     c0,2.3720703,0.4882813,4.3955078,1.4648438,6.0698242c2.046875,3.3955078,5.046875,5.0927734,9,5.0927734     c4,0,7-1.6972656,9-5.0927734c1.0234375-1.6743164,1.5351563-3.6977539,1.5351563-6.0698242V66.4189453h8.3022461V94.3256836z"
   id="path19"
   style="fill:none" />
		</g>
		<g
   id="g21">
			<path
   fill-rule="evenodd"
   clip-rule="evenodd"
   d="M266.3339844,99.5136719c0,4.6889648-2.1855469,8.3330078-6.5576172,10.9335938     c-3.4423828,2.0893555-7.3720703,3.1342773-11.7910156,3.1342773c-7.6748047,0-14.1162109-2.9853516-19.3251953-8.956543     l6.6972656-5.2060547c3.3027344,3.9067383,7.4648438,5.8603516,12.4882813,5.8603516     c2.9306641,0,5.3603516-0.5805664,7.2910156-1.7412109c1.9296875-1.1606445,2.8945313-2.5996094,2.8945313-4.3178711     c0-1.949707-1-3.3657227-3-4.2485352c-0.3710938-0.1860352-2.2324219-0.7890625-5.5810547-1.8100586l-2.0927734-0.6269531     l-2.1630859-0.4873047l-2.3017578-0.6967773c-4.5585938-1.2998047-7.6054688-2.809082-9.1396484-4.5268555     c-1.9541016-2.2285156-2.9306641-4.8520508-2.9306641-7.8696289c0-3.8540039,1.4765625-6.9765625,4.4306641-9.3676758     C238.2060547,67.1958008,242.078125,66,246.8691406,66c6.9296875,0,12.7207031,2.4057617,17.3720703,7.2167969     l-6.2099609,5.5507813c-2.9296875-3.0698242-6.6503906-4.6044922-11.1621094-4.6044922     c-5.0234375,0-7.5351563,1.578125-7.5351563,4.7353516c0,1.300293,0.5117188,2.3100586,1.5351563,3.0297852     c1.0234375,0.7202148,2.953125,1.4047852,5.7910156,2.0546875c6.1855469,1.3461914,10.5107422,2.6464844,12.9765625,3.8999023     c2.0458984,1.0678711,3.6738281,2.6347656,4.8828125,4.7006836     C265.7294922,94.6499023,266.3339844,96.9599609,266.3339844,99.5136719z"
   id="path23"
   style="fill:none" />
		</g>
	</g>
</g>
</svg>