<?xml version="1.0" encoding="UTF-8" standalone="no"?>
<!-- Generator: Adobe Illustrator 12.0.0, SVG Export Plug-In . SVG Version: 6.00 Build 51448)  -->

<svg
   xmlns:dc="http://purl.org/dc/elements/1.1/"
   xmlns:cc="http://creativecommons.org/ns#"
   xmlns:rdf="http://www.w3.org/1999/02/22-rdf-syntax-ns#"
   xmlns:svg="http://www.w3.org/2000/svg"
   xmlns="http://www.w3.org/2000/svg"
   xmlns:sodipodi="http://sodipodi.sourceforge.net/DTD/sodipodi-0.dtd"
   xmlns:inkscape="http://www.inkscape.org/namespaces/inkscape"
   version="1.1"
   id="Layer_1"
   width="384"
   height="384"
   viewBox="0 0 384 384"
   overflow="visible"
   enable-background="new 0 0 384 384"
   xml:space="preserve"
   inkscape:version="0.48.2 r9819"
   sodipodi:docname="US_blank_(CA).svg"><metadata
   id="metadata29"><rdf:RDF><cc:Work
       rdf:about=""><dc:format>image/svg+xml</dc:format><dc:type
         rdf:resource="http://purl.org/dc/dcmitype/StillImage" /><dc:title></dc:title></cc:Work></rdf:RDF></metadata><defs
   id="defs27" /><sodipodi:namedview
   pagecolor="#ffffff"
   bordercolor="#666666"
   borderopacity="1"
   objecttolerance="10"
   gridtolerance="10"
   guidetolerance="10"
   inkscape:pageopacity="0"
   inkscape:pageshadow="2"
   inkscape:window-width="1920"
   inkscape:window-height="1000"
   id="namedview25"
   showgrid="false"
   inkscape:zoom="0.61458333"
   inkscape:cx="192"
   inkscape:cy="192"
   inkscape:window-x="0"
   inkscape:window-y="25"
   inkscape:window-maximized="1"
   inkscape:current-layer="Layer_1" />
<g
   id="g3">
	<g
   id="g5">
		<path
   fill-rule="evenodd"
   clip-rule="evenodd"
   fill="#FFFFFF"
   d="M192,0.003418    c-14.8681641,14.0512695-34.9277344,22.6665039-57,22.6665039c-22.0732422,0-42.1318359-8.6176758-57-22.6699219L0,80.7714844    c19.4160156,14.3930664,32,37.4790039,32,63.5043945c0,16.487793-5.0517578,31.7973633-13.6904297,44.4628906    C6.793457,205.5878906,0,226.0507813,0,248c0,57.7871094,46.6801758,104.6699219,104.390625,104.9980469    C137.668457,352.9980469,167.9755859,364.609375,192,384c24.0244141-19.390625,54.3320313-31.0019531,87.609375-31.0019531    C337.3193359,352.6699219,384,305.7871094,384,248c0-21.9492188-6.7929688-42.4121094-18.3095703-59.2612305    C357.0517578,176.0732422,352,160.7636719,352,144.2758789c0-26.0253906,12.5839844-49.1113281,32-63.5043945L306,0    c-14.8681641,14.0522461-34.9267578,22.6699219-57,22.6699219C226.9277344,22.6699219,206.8681641,14.0546875,192,0.003418z"
   id="path7" />
		
			<path
   fill-rule="evenodd"
   clip-rule="evenodd"
   fill="none"
   stroke="#000000"
   stroke-width="0"
   stroke-linecap="round"
   stroke-linejoin="round"
   stroke-miterlimit="3.863693"
   d="    M192,0.003418c-14.8681641,14.0512695-34.9277344,22.6665039-57,22.6665039c-22.0732422,0-42.1318359-8.6176758-57-22.6699219    L0,80.7714844c19.4160156,14.3930664,32,37.4790039,32,63.5043945c0,16.487793-5.0517578,31.7973633-13.6904297,44.4628906    C6.793457,205.5878906,0,226.0507813,0,248c0,57.7871094,46.6801758,104.6699219,104.390625,104.9980469    C137.668457,352.9980469,167.9755859,364.609375,192,384c24.0244141-19.390625,54.3320313-31.0019531,87.609375-31.0019531    C337.3193359,352.6699219,384,305.7871094,384,248c0-21.9492188-6.7929688-42.4121094-18.3095703-59.2612305    C357.0517578,176.0732422,352,160.7636719,352,144.2758789c0-26.0253906,12.5839844-49.1113281,32-63.5043945L306,0    c-14.8681641,14.0522461-34.9267578,22.6699219-57,22.6699219C226.9277344,22.6699219,206.8681641,14.0546875,192,0.003418z"
   id="path9" />
	</g>
	<g
   id="g11">
		<path
   fill-rule="evenodd"
   clip-rule="evenodd"
   d="M303.8720703,28.0273438l50.3662109,52.1557617    C339.7480469,97.5253906,331,119.8857422,331,144.2758789c0,20.8432617,6.4052734,40.2626953,17.3476563,56.3041992    C357.5654297,214.0683594,363,230.4316406,363,248c0,46.2294922-37.34375,83.7363281-83.5097656,83.9990234    C247.1210938,332.0214844,217.1582031,341.6162109,192,358.0605469c-25.1884766-16.4648438-55.1953125-26.0625-87.609375-26.0625    C58.2797852,331.6728516,21,294.1904297,21,248c0-17.5673828,5.4345703-33.9316406,14.6523438-47.4199219    C46.5942383,184.5385742,53,165.1191406,53,144.2758789c0-24.390625-8.7475586-46.7504883-23.2382813-64.0927734    l50.3662109-52.1557617C96.0566406,37.9365234,114.8745117,43.6699219,135,43.6699219c21.0283203,0,40.6298828-6.2587891,57-17    c16.3701172,10.7412109,35.9716797,17,57,17C269.1259766,43.6699219,287.9433594,37.9365234,303.8720703,28.0273438z     M249,31.6699219c21.2548828,0,40.8378906-7.2177734,56.4121094-19.3222656l65.4033203,67.7265625    C353.7060547,96.1201172,343,118.9477539,343,144.2758789c0,18.3544922,5.6318359,35.425293,15.2578125,49.5375977    C368.7890625,209.2226563,375,227.9277344,375,248c0,52.8339844-42.6787109,95.6992188-95.4414063,95.9980469    c-32.8427734,0.0117188-62.9814453,10.65625-87.5585938,28.6523438    c-24.5893555-18.0048828-54.7475586-28.6523438-87.609375-28.6523438C51.6513672,343.671875,9,300.8164063,9,248    c0-20.0722656,6.2109375-38.7773438,16.7421875-54.1865234C35.3681641,179.7011719,41,162.6303711,41,144.2758789    c0-25.328125-10.706543-48.1557617-27.8154297-64.2016602l65.4033203-67.7265625    C94.1625977,24.4521484,113.7451172,31.6699219,135,31.6699219c21.5219727,0,41.3310547-7.3989258,57-19.7802734    C207.6689453,24.2709961,227.4775391,31.6699219,249,31.6699219z"
   id="path13" />
	</g>
	<g
   id="g15">
		<g
   id="g17">
			
		</g>
		<g
   id="g21">
			
		</g>
	</g>
</g>
</svg>