<?xml version="1.0" encoding="UTF-8" standalone="no"?>
<svg
   xmlns:dc="http://purl.org/dc/elements/1.1/"
   xmlns:cc="http://creativecommons.org/ns#"
   xmlns:rdf="http://www.w3.org/1999/02/22-rdf-syntax-ns#"
   xmlns:svg="http://www.w3.org/2000/svg"
   xmlns="http://www.w3.org/2000/svg"
   xmlns:sodipodi="http://sodipodi.sourceforge.net/DTD/sodipodi-0.dtd"
   xmlns:inkscape="http://www.inkscape.org/namespaces/inkscape"
   version="1.0"
   width="580.000000pt"
   height="580.000000pt"
   viewBox="0 0 580.000000 580.000000"
   preserveAspectRatio="xMidYMid meet"
   id="svg2"
   inkscape:version="0.48.2 r9819"
   sodipodi:docname="bank.svg">
  <defs
     id="defs14" />
  <sodipodi:namedview
     pagecolor="#ffffff"
     bordercolor="#666666"
     borderopacity="1"
     objecttolerance="10"
     gridtolerance="10"
     guidetolerance="10"
     inkscape:pageopacity="0"
     inkscape:pageshadow="2"
     inkscape:window-width="1920"
     inkscape:window-height="1000"
     id="namedview12"
     showgrid="false"
     inkscape:zoom="0.32551724"
     inkscape:cx="-224.25847"
     inkscape:cy="362.5"
     inkscape:window-x="0"
     inkscape:window-y="25"
     inkscape:window-maximized="1"
     inkscape:current-layer="g6" />
  <metadata
     id="metadata4">
Created by potrace 1.11, written by Peter Selinger 2001-2013
<rdf:RDF>
  <cc:Work
     rdf:about="">
    <dc:format>image/svg+xml</dc:format>
    <dc:type
       rdf:resource="http://purl.org/dc/dcmitype/StillImage" />
  </cc:Work>
</rdf:RDF>
</metadata>
  <g
     transform="translate(0.000000,580.000000) scale(0.100000,-0.100000)"
     fill="#000000"
     stroke="none"
     id="g6">
    <path
       d="M2830 5553 c-26 -10 -2523 -1913 -2553 -1944 -36 -39 -37 -96 -3 -136 l24 -28 226 -3 226 -3 0 -1556 0 -1555 34 -34 34 -34 2051 0 2051 0 32 29 33 29 3 1561 2 1561 210 0 c141 0 218 4 235 12 46 21 69 93 45 138 -5 10 -234 189 -507 397 -2047 1560 -2055 1565 -2092 1569 -20 2 -43 1 -51 -3z m1145 -1063 c603 -459 1099 -838 1101 -842 3 -4 -47 -8 -110 -8 -114 0 -116 -1 -148 -29 l-33 -29 -3 -1556 -2 -1556 -1910 0 -1910 0 0 1528 c0 1016 -4 1539 -10 1564 -19 66 -46 78 -178 78 -102 0 -114 2 -102 15 31 30 2195 1674 2202 1672 4 -1 500 -378 1103 -837z"
       id="path8"
       style="stroke:#4c4c67;stroke-opacity:1;fill:#4c4c67;fill-opacity:1" />
    <path
       d="M2799 4706 c-108 -38 -159 -126 -159 -270 l0 -81 -98 -17 c-117 -20 -273 -69 -357 -111 -329 -165 -513 -493 -474 -845 27 -245 140 -421 364 -568 126 -82 335 -167 508 -205 l57 -12 0 -584 c0 -320 -2 -583 -3 -583 -11 0 -119 40 -148 55 -99 50 -199 157 -259 275 -33 65 -75 196 -85 262 -4 26 -13 52 -20 58 -9 7 -72 2 -216 -20 -112 -16 -220 -33 -239 -37 l-35 -8 1 -66 c1 -36 12 -104 24 -150 101 -390 381 -627 855 -722 l120 -24 5 -124 c7 -155 22 -192 100 -251 84 -63 199 -60 279 9 70 59 84 99 89 244 l4 127 88 16 c273 50 476 145 625 291 191 188 276 389 275 647 0 246 -67 413 -227 570 -139 136 -337 229 -645 304 l-118 28 0 519 0 518 23 -6 c61 -17 168 -79 211 -122 54 -55 118 -178 137 -266 7 -32 17 -61 22 -64 14 -8 487 50 504 62 35 25 -61 283 -151 408 -88 122 -198 210 -343 272 -83 36 -333 105 -379 105 -20 0 -22 6 -26 103 -4 77 -10 112 -25 142 -57 109 -176 160 -284 121z m-159 -1211 l0 -475 -52 21 c-156 60 -289 165 -333 262 -95 207 -25 441 174 580 43 29 172 86 199 87 9 0 12 -101 12 -475z m713 -1111 c159 -80 227 -200 227 -399 0 -187 -75 -337 -217 -431 -53 -35 -210 -103 -240 -104 -10 0 -13 109 -13 515 l0 514 88 -30 c48 -17 117 -47 155 -65z"
       id="path10"
       style="fill:#4c4c67;fill-opacity:1" />
  </g>
</svg>
