<?xml version="1.0" encoding="UTF-8" standalone="no"?>
<svg
   xmlns:dc="http://purl.org/dc/elements/1.1/"
   xmlns:cc="http://creativecommons.org/ns#"
   xmlns:rdf="http://www.w3.org/1999/02/22-rdf-syntax-ns#"
   xmlns:svg="http://www.w3.org/2000/svg"
   xmlns="http://www.w3.org/2000/svg"
   xmlns:sodipodi="http://sodipodi.sourceforge.net/DTD/sodipodi-0.dtd"
   xmlns:inkscape="http://www.inkscape.org/namespaces/inkscape"
   version="1.0"
   width="580.000000pt"
   height="580.000000pt"
   viewBox="0 0 580.000000 580.000000"
   preserveAspectRatio="xMidYMid meet"
   id="svg2"
   inkscape:version="0.48.2 r9819"
   sodipodi:docname="hotel.svg">
  <defs
     id="defs18" />
  <sodipodi:namedview
     pagecolor="#ffffff"
     bordercolor="#666666"
     borderopacity="1"
     objecttolerance="10"
     gridtolerance="10"
     guidetolerance="10"
     inkscape:pageopacity="0"
     inkscape:pageshadow="2"
     inkscape:window-width="1920"
     inkscape:window-height="1000"
     id="namedview16"
     showgrid="false"
     inkscape:zoom="0.65103448"
     inkscape:cx="43.79737"
     inkscape:cy="371.16403"
     inkscape:window-x="0"
     inkscape:window-y="25"
     inkscape:window-maximized="1"
     inkscape:current-layer="svg2" />
  <metadata
     id="metadata4">
Created by potrace 1.11, written by Peter Selinger 2001-2013
<rdf:RDF>
  <cc:Work
     rdf:about="">
    <dc:format>image/svg+xml</dc:format>
    <dc:type
       rdf:resource="http://purl.org/dc/dcmitype/StillImage" />
  </cc:Work>
</rdf:RDF>
</metadata>
  <g
     transform="translate(0.000000,580.000000) scale(0.100000,-0.100000)"
     fill="#000000"
     stroke="none"
     id="g6"
     style="fill:#4c4c67;fill-opacity:1">
    <path
       d="M1472 4375 c-100 -22 -204 -78 -282 -151 -128 -121 -183 -242 -183 -404 0 -52 6 -115 12 -140 53 -187 210 -347 406 -412 58 -19 91 -23 195 -23 110 0 134 4 204 28 190 67 332 208 386 386 29 91 27 234 -3 322 -67 196 -242 351 -445 395 -83 17 -207 17 -290 -1z"
       id="path8"
       style="fill:#4c4c67;fill-opacity:1" />
    <path
       d="M426 4048 c-59 -16 -112 -75 -125 -140 -13 -66 -43 -2536 -31 -2577 13 -46 40 -80 85 -106 107 -63 241 1 266 128 4 23 8 205 9 405 l0 362 343 0 c653 1 3873 -21 4034 -26 l162 -6 -6 -327 c-6 -319 -6 -327 15 -368 53 -104 184 -130 273 -56 69 59 66 18 84 955 l17 847 -22 45 c-25 52 -57 78 -117 96 -78 24 -165 -17 -202 -94 -20 -41 -22 -65 -28 -385 l-6 -341 -141 0 c-386 -1 -3719 21 -4035 26 l-363 6 6 457 c13 931 13 972 -6 1008 -23 41 -72 78 -123 92 -22 6 -42 10 -45 10 -3 -1 -22 -6 -44 -11z"
       id="path10"
       style="fill:#4c4c67;fill-opacity:1" />
    <path
       d="M2463 3415 c-172 -37 -305 -179 -335 -357 -28 -169 65 -357 218 -440 111 -60 69 -58 1240 -58 675 0 1091 4 1125 10 128 24 253 119 309 234 81 167 53 351 -75 485 -67 70 -132 107 -222 126 -98 21 -2165 21 -2260 0z"
       id="path12"
       style="fill:#4c4c67;fill-opacity:1" />
    <path
       d="M894 3040 c-165 -39 -222 -256 -97 -371 71 -67 47 -64 598 -64 493 0 501 0 540 22 81 43 125 112 125 196 0 67 -20 116 -65 161 -64 64 -82 66 -604 65 -256 -1 -480 -4 -497 -9z"
       id="path14"
       style="fill:#4c4c67;fill-opacity:1" />
  </g>
</svg>
