<?xml version="1.0" encoding="UTF-8" standalone="no"?>
<svg
   xmlns:dc="http://purl.org/dc/elements/1.1/"
   xmlns:cc="http://creativecommons.org/ns#"
   xmlns:rdf="http://www.w3.org/1999/02/22-rdf-syntax-ns#"
   xmlns:svg="http://www.w3.org/2000/svg"
   xmlns="http://www.w3.org/2000/svg"
   xmlns:sodipodi="http://sodipodi.sourceforge.net/DTD/sodipodi-0.dtd"
   xmlns:inkscape="http://www.inkscape.org/namespaces/inkscape"
   version="1.0"
   width="580.000000pt"
   height="580.000000pt"
   viewBox="0 0 580.000000 580.000000"
   preserveAspectRatio="xMidYMid meet"
   id="svg2"
   inkscape:version="0.48.2 r9819"
   sodipodi:docname="pharmacy.svg">
  <defs
     id="defs14" />
  <sodipodi:namedview
     pagecolor="#ffffff"
     bordercolor="#666666"
     borderopacity="1"
     objecttolerance="10"
     gridtolerance="10"
     guidetolerance="10"
     inkscape:pageopacity="0"
     inkscape:pageshadow="2"
     inkscape:window-width="1280"
     inkscape:window-height="995"
     id="namedview12"
     showgrid="false"
     inkscape:zoom="0.32551724"
     inkscape:cx="-224.25847"
     inkscape:cy="362.5"
     inkscape:window-x="1920"
     inkscape:window-y="0"
     inkscape:window-maximized="1"
     inkscape:current-layer="svg2" />
  <metadata
     id="metadata4">
Created by potrace 1.11, written by Peter Selinger 2001-2013
<rdf:RDF>
  <cc:Work
     rdf:about="">
    <dc:format>image/svg+xml</dc:format>
    <dc:type
       rdf:resource="http://purl.org/dc/dcmitype/StillImage" />
  </cc:Work>
</rdf:RDF>
</metadata>
  <g
     transform="translate(0.000000,580.000000) scale(0.100000,-0.100000)"
     fill="#000000"
     stroke="none"
     id="g6"
     style="fill:#973434;fill-opacity:1">
    <path
       d="M1110 2950 l0 -1860 1860 0 1860 0 0 1860 0 1860 -1860 0 -1860 0 0 -1860z m3518 3 l2 -1653 -1655 0 -1655 0 0 1655 0 1655 1653 -2 1652 -3 3 -1652z"
       id="path8"
       style="fill:#973434;fill-opacity:1" />
    <path
       d="M2350 3975 l0 -405 -405 0 -405 0 2 -617 3 -618 403 -3 402 -2 0 -405 0 -405 620 0 620 0 0 405 0 405 405 0 405 0 0 620 0 620 -405 0 -405 0 0 405 0 405 -620 0 -620 0 0 -405z"
       id="path10"
       style="fill:#973434;fill-opacity:1" />
  </g>
</svg>
